<?xml version="1.0" encoding="UTF-8" standalone="no"?>
<!-- Created with Inkscape (http://www.inkscape.org/) -->

<svg
   width="64"
   height="64"
   id="svg2869"
   version="1.1"
   viewBox="0 0 64 64"
   xmlns:xlink="http://www.w3.org/1999/xlink"
   xmlns="http://www.w3.org/2000/svg"
   xmlns:svg="http://www.w3.org/2000/svg"
   xmlns:rdf="http://www.w3.org/1999/02/22-rdf-syntax-ns#"
   xmlns:cc="http://creativecommons.org/ns#"
   xmlns:dc="http://purl.org/dc/elements/1.1/">
  <defs
     id="defs2871">
    <linearGradient
       id="linearGradient147">
      <stop
         style="stop-color:#fce94f;stop-opacity:1"
         offset="0"
         id="stop147" />
      <stop
         style="stop-color:#c4a000;stop-opacity:1"
         offset="1"
         id="stop148" />
    </linearGradient>
    <radialGradient
       xlink:href="#linearGradient147"
       id="radialGradient1"
       gradientUnits="userSpaceOnUse"
       gradientTransform="matrix(0.16244297,-0.01932539,0.06390952,0.53720282,5.6971917,-45.147441)"
       cx="88.780167"
       cy="110.20604"
       fx="88.780167"
       fy="110.20604"
       r="89.803741" />
  </defs>
  <metadata
     id="metadata2874">
    <rdf:RDF>
      <cc:Work
         rdf:about="">
        <dc:format>image/svg+xml</dc:format>
        <dc:type
           rdf:resource="http://purl.org/dc/dcmitype/StillImage" />
        <dc:creator>
          <cc:Agent>
            <dc:title>[maxwxyz]</dc:title>
          </cc:Agent>
        </dc:creator>
        <dc:relation>https://www.freecad.org/wiki/index.php?title=Artwork</dc:relation>
        <dc:publisher>
          <cc:Agent>
            <dc:title>FreeCAD</dc:title>
          </cc:Agent>
        </dc:publisher>
        <dc:identifier>FreeCAD/src/</dc:identifier>
        <dc:rights>
          <cc:Agent>
            <dc:title>FreeCAD LGPL2+</dc:title>
          </cc:Agent>
        </dc:rights>
        <dc:date>2024</dc:date>
      </cc:Work>
    </rdf:RDF>
  </metadata>
  <g
     id="layer3"
     style="display:inline">
    <g
       id="g1712"
       stroke-linecap="round"
       transform="matrix(0.12956007,0,0,0.12972187,-15.807667,-8.8991815)"
       fill="none"
       style="fill:none;stroke:#0b1e23;stroke-width:23.1408;stroke-linecap:round;stroke-linejoin:round;stroke-dasharray:none;stroke-opacity:1">
      <path
         id="path1708"
         d="m 410.9136,440.17031 -83.82719,29.5158"
         style="fill:none;stroke:#0b1e23;stroke-width:34.7113;stroke-linecap:round;stroke-linejoin:round;stroke-dasharray:none;stroke-opacity:1" />
      <path
         id="path1709"
         d="m 410.9136,462.99432 -83.82719,29.5158"
         style="fill:none;stroke:#0b1e23;stroke-width:34.7113;stroke-linecap:round;stroke-linejoin:round;stroke-dasharray:none;stroke-opacity:1" />
      <path
         id="path1710"
         d="m 410.9136,485.81832 -83.82719,29.5158"
         style="fill:none;stroke:#0b1e23;stroke-width:34.7113;stroke-linecap:round;stroke-linejoin:round;stroke-dasharray:none;stroke-opacity:1" />
      <path
         id="path1711"
         d="m 410.9136,417.3463 -83.82719,29.5158"
         style="fill:none;stroke:#0b1e23;stroke-width:34.7113;stroke-linecap:round;stroke-linejoin:round;stroke-dasharray:none;stroke-opacity:1" />
    </g>
    <rect
       style="fill:#eeeeec;fill-opacity:1;stroke:#0b1d22;stroke-width:2;stroke-linecap:round;stroke-linejoin:round;stroke-dasharray:none;stroke-opacity:1;paint-order:normal"
       id="rect142"
       width="9.3981934"
       height="18.76359"
       x="27.300903"
       y="42.70356"
       ry="4.7351794" />
    <g
       id="g146"
       stroke-linecap="round"
       transform="matrix(0.12956007,0,0,0.12972187,-15.807667,-8.8991815)"
       fill="none"
       style="fill:none;stroke:#eeeeec;stroke-width:11.5704;stroke-linecap:round;stroke-linejoin:round;stroke-dasharray:none;stroke-opacity:1">
      <path
         id="path143"
         d="m 410.9136,440.17031 -83.82719,29.5158"
         style="fill:none;stroke:#eeeeec;stroke-width:11.5704;stroke-linecap:round;stroke-linejoin:round;stroke-dasharray:none;stroke-opacity:1" />
      <path
         id="path144"
         d="m 410.9136,462.99432 -83.82719,29.5158"
         style="fill:none;stroke:#eeeeec;stroke-width:11.5704;stroke-linecap:round;stroke-linejoin:round;stroke-dasharray:none;stroke-opacity:1" />
      <path
         id="path145"
         d="m 410.9136,485.81832 -83.82719,29.5158"
         style="fill:none;stroke:#eeeeec;stroke-width:11.5704;stroke-linecap:round;stroke-linejoin:round;stroke-dasharray:none;stroke-opacity:1" />
      <path
         id="path146"
         d="m 410.9136,417.3463 -83.82719,29.5158"
         style="fill:none;stroke:#eeeeec;stroke-width:11.5704;stroke-linecap:round;stroke-linejoin:round;stroke-dasharray:none;stroke-opacity:1" />
    </g>
    <path
       style="fill:#d3d7cf;fill-opacity:1;stroke:#eeeeec;stroke-width:2;stroke-linecap:round;stroke-linejoin:round;stroke-dasharray:none;stroke-opacity:1;paint-order:normal"
       id="rect143"
       width="61.320667"
       height="122.27464"
       x="90.180725"
       y="276.24704"
       ry="30.857229"
       d="m 32.000113,44.704615 c 1.489912,0 2.700363,1.211284 2.700363,2.734008 v 9.293285 c 0,1.522722 -1.210451,2.734007 -2.700363,2.734007 -1.489913,0 -2.700363,-1.211285 -2.700363,-2.734007 v -9.293285 c 0,-1.522724 1.21045,-2.734008 2.700363,-2.734008 z" />
    <path
       id="path1691"
       stroke-linejoin="round"
       d="M 39.293646,47.13992 C 39.183297,30.129494 42.933644,27.643531 44.368186,25.766783 46.582837,22.871098 48.380613,15.799916 44.478535,9.6402537 39.449974,1.661696 28.313881,-0.60620745 20.430029,8.0938931 15.538026,13.54214 17.030348,21.347295 19.767627,25.656756 c 0.721102,1.058836 4.633295,4.417954 4.633295,21.428381 0,0.110487 14.892724,0.05524 14.892724,0.05524 z"
       fill="url(#linearGradient2430)"
       fill-rule="evenodd"
       style="display:inline;fill:#fce94f;stroke:#231f0b;stroke-width:2;stroke-linecap:round;stroke-linejoin:round;stroke-dasharray:none;stroke-opacity:1" />
    <path
       id="path147"
       style="display:inline;fill:url(#radialGradient1);fill-rule:evenodd;stroke:#fce94f;stroke-width:2;stroke-linecap:round;stroke-linejoin:round;stroke-dasharray:none;stroke-opacity:1"
       d="M 31.886719 4.5332031 C 28.575938 4.5737216 25.01443 6.0146792 21.912109 9.4375 L 21.910156 9.4394531 C 17.763426 14.065835 19.092913 20.825002 21.427734 24.537109 C 21.434534 24.542709 21.537465 24.630363 21.710938 24.828125 C 22.722929 25.971628 26.093655 30.837387 26.376953 45.144531 C 27.577021 45.176641 25.239855 45.189001 37.310547 45.144531 C 37.402217 37.723679 38.265668 33.086355 39.376953 30.082031 C 40.617346 26.728669 42.347576 25.118137 42.78125 24.550781 C 44.438381 22.384061 46.238663 16.15524 42.791016 10.712891 L 42.789062 10.710938 L 42.789062 10.708984 C 40.314422 6.78264 36.178076 4.4806842 31.886719 4.5332031 z " />
    <path
       style="fill:none;fill-opacity:1;stroke:#fce94f;stroke-width:1;stroke-linecap:round;stroke-linejoin:round;stroke-dasharray:none;stroke-opacity:1;paint-order:normal"
       d="M 30.489608,43.739282 C 30.312501,28.603051 27.132074,28.28744 26.343803,23.232841 c -0.986215,-6.32386 1.513262,2.140923 2.574643,1.262536 1.06138,-0.878387 0.07659,-7.740349 1.27064,-4.080402 1.194053,3.659948 2.2014,3.367151 3.307006,0 1.105605,-3.367151 -0.558299,7.0868 0.734795,5.147297 1.293093,-1.939503 3.285368,-6.151896 2.835933,-3.262473 C 36.541025,25.680146 32,27.66027 33.496092,43.73001"
       id="path148" />
  </g>
</svg>
