<?xml version="1.0" encoding="UTF-8" standalone="no"?>
<!-- Created with Inkscape (http://www.inkscape.org/) -->

<svg
   width="64"
   height="64"
   id="svg2869"
   version="1.1"
   viewBox="0 0 64 64"
   xmlns:xlink="http://www.w3.org/1999/xlink"
   xmlns="http://www.w3.org/2000/svg"
   xmlns:svg="http://www.w3.org/2000/svg"
   xmlns:rdf="http://www.w3.org/1999/02/22-rdf-syntax-ns#"
   xmlns:cc="http://creativecommons.org/ns#"
   xmlns:dc="http://purl.org/dc/elements/1.1/">
  <defs
     id="defs2871">
    <linearGradient
       id="linearGradient147">
      <stop
         style="stop-color:#fce94f;stop-opacity:1"
         offset="0"
         id="stop147" />
      <stop
         style="stop-color:#c4a000;stop-opacity:1"
         offset="1"
         id="stop148" />
    </linearGradient>
    <linearGradient
       id="linearGradient5">
      <stop
         style="stop-color:#ef2929;stop-opacity:1;"
         offset="0"
         id="stop19" />
      <stop
         style="stop-color:#ef2929;stop-opacity:0;"
         offset="1"
         id="stop20" />
    </linearGradient>
    <linearGradient
       id="swatch18">
      <stop
         style="stop-color:#ef2929;stop-opacity:1;"
         offset="0"
         id="stop18" />
    </linearGradient>
    <linearGradient
       id="swatch15">
      <stop
         style="stop-color:#3d0000;stop-opacity:1;"
         offset="0"
         id="stop15" />
    </linearGradient>
    <linearGradient
       id="linearGradient5-1">
      <stop
         style="stop-color:#ef2929;stop-opacity:1;"
         offset="0"
         id="stop5" />
      <stop
         style="stop-color:#ef2929;stop-opacity:0;"
         offset="1"
         id="stop6" />
    </linearGradient>
    <linearGradient
       id="linearGradient3836-9">
      <stop
         style="stop-color:#a40000;stop-opacity:1"
         offset="0"
         id="stop3838-8" />
      <stop
         style="stop-color:#ef2929;stop-opacity:1"
         offset="1"
         id="stop3840-1" />
    </linearGradient>
    <radialGradient
       xlink:href="#linearGradient147"
       id="radialGradient148"
       cx="88.780167"
       cy="110.20604"
       fx="88.780167"
       fy="110.20604"
       r="89.803741"
       gradientTransform="matrix(1.0598964,-0.12593564,0.41699233,3.5007312,-50.777645,-296.24202)"
       gradientUnits="userSpaceOnUse" />
  </defs>
  <metadata
     id="metadata2874">
    <rdf:RDF>
      <cc:Work
         rdf:about="">
        <dc:format>image/svg+xml</dc:format>
        <dc:type
           rdf:resource="http://purl.org/dc/dcmitype/StillImage" />
        <dc:creator>
          <cc:Agent>
            <dc:title>[maxwxyz]</dc:title>
          </cc:Agent>
        </dc:creator>
        <dc:relation>https://www.freecad.org/wiki/index.php?title=Artwork</dc:relation>
        <dc:publisher>
          <cc:Agent>
            <dc:title>FreeCAD</dc:title>
          </cc:Agent>
        </dc:publisher>
        <dc:identifier>FreeCAD/src/</dc:identifier>
        <dc:rights>
          <cc:Agent>
            <dc:title>FreeCAD LGPL2+</dc:title>
          </cc:Agent>
        </dc:rights>
        <dc:date>2024</dc:date>
      </cc:Work>
    </rdf:RDF>
  </metadata>
  <g
     id="layer3"
     style="display:inline">
    <g
       id="layer1"
       transform="matrix(0.15326306,0,0,0.15345446,15.906603,1.4167983)"
       style="stroke-width:13.0413;stroke-dasharray:none">
      <g
         id="g2420"
         stroke="#000000"
         stroke-width="9.25241"
         transform="translate(-15.836,-7.1981)"
         style="stroke-width:13.0413;stroke-dasharray:none">
        <g
           id="g1712"
           stroke-linecap="round"
           transform="matrix(0.84534442,0,0,0.84534442,-191.09103,-60.026924)"
           fill="none"
           style="fill:none;stroke:#0b1e23;stroke-width:23.1408;stroke-linecap:round;stroke-linejoin:round;stroke-dasharray:none;stroke-opacity:1">
          <path
             id="path1708"
             d="m 410.9136,440.17031 -83.82719,29.5158"
             style="fill:none;stroke:#0b1e23;stroke-width:34.7113;stroke-linecap:round;stroke-linejoin:round;stroke-dasharray:none;stroke-opacity:1" />
          <path
             id="path1709"
             d="m 410.9136,462.99432 -83.82719,29.5158"
             style="fill:none;stroke:#0b1e23;stroke-width:34.7113;stroke-linecap:round;stroke-linejoin:round;stroke-dasharray:none;stroke-opacity:1" />
          <path
             id="path1710"
             d="m 410.9136,485.81832 -83.82719,29.5158"
             style="fill:none;stroke:#0b1e23;stroke-width:34.7113;stroke-linecap:round;stroke-linejoin:round;stroke-dasharray:none;stroke-opacity:1" />
          <path
             id="path1711"
             d="m 410.9136,417.3463 -83.82719,29.5158"
             style="fill:none;stroke:#0b1e23;stroke-width:34.7113;stroke-linecap:round;stroke-linejoin:round;stroke-dasharray:none;stroke-opacity:1" />
        </g>
        <rect
           style="fill:#eeeeec;fill-opacity:1;stroke:#0b1d22;stroke-width:13.0413;stroke-linecap:round;stroke-linejoin:round;stroke-dasharray:none;stroke-opacity:1;paint-order:normal"
           id="rect142"
           width="61.320667"
           height="122.27464"
           x="90.180725"
           y="276.24704"
           ry="30.857229" />
        <g
           id="g146"
           stroke-linecap="round"
           transform="matrix(0.84534442,0,0,0.84534442,-191.09103,-60.026924)"
           fill="none"
           style="fill:none;stroke:#eeeeec;stroke-width:11.5704;stroke-linecap:round;stroke-linejoin:round;stroke-dasharray:none;stroke-opacity:1">
          <path
             id="path143"
             d="m 410.9136,440.17031 -83.82719,29.5158"
             style="fill:none;stroke:#eeeeec;stroke-width:11.5704;stroke-linecap:round;stroke-linejoin:round;stroke-dasharray:none;stroke-opacity:1" />
          <path
             id="path144"
             d="m 410.9136,462.99432 -83.82719,29.5158"
             style="fill:none;stroke:#eeeeec;stroke-width:11.5704;stroke-linecap:round;stroke-linejoin:round;stroke-dasharray:none;stroke-opacity:1" />
          <path
             id="path145"
             d="m 410.9136,485.81832 -83.82719,29.5158"
             style="fill:none;stroke:#eeeeec;stroke-width:11.5704;stroke-linecap:round;stroke-linejoin:round;stroke-dasharray:none;stroke-opacity:1" />
          <path
             id="path146"
             d="m 410.9136,417.3463 -83.82719,29.5158"
             style="fill:none;stroke:#eeeeec;stroke-width:11.5704;stroke-linecap:round;stroke-linejoin:round;stroke-dasharray:none;stroke-opacity:1" />
        </g>
        <path
           style="fill:#d3d7cf;fill-opacity:1;stroke:#eeeeec;stroke-width:13.0413;stroke-linecap:round;stroke-linejoin:round;stroke-dasharray:none;stroke-opacity:1;paint-order:normal"
           id="rect143"
           width="61.320667"
           height="122.27464"
           x="90.180725"
           y="276.24704"
           ry="30.857229"
           d="m 120.8418,289.28711 c 9.72127,0 17.61914,7.89344 17.61914,17.81641 v 60.56054 c 0,9.92296 -7.89787,17.81641 -17.61914,17.81641 -9.72128,0 -17.61914,-7.89345 -17.61914,-17.81641 v -60.56054 c 0,-9.92297 7.89786,-17.81641 17.61914,-17.81641 z" />
        <path
           id="path1691"
           stroke-linejoin="round"
           d="m 168.43013,305.157 c -0.72,-110.85 23.75,-127.05 33.11,-139.28 14.45,-18.87 26.18,-64.95 0.72,-105.090002 -32.81,-51.9929997 -105.469995,-66.7719997 -156.909995,-10.077 -31.919,35.504 -22.182,86.367002 -4.322,114.450002 4.705,6.9 30.231,28.79 30.231,139.64 0,0.72 97.170995,0.36 97.170995,0.36 z"
           fill="url(#linearGradient2430)"
           fill-rule="evenodd"
           style="display:inline;fill:#fce94f;stroke:#231f0b;stroke-width:13.0413;stroke-linecap:round;stroke-linejoin:round;stroke-dasharray:none;stroke-opacity:1" />
        <path
           id="path147"
           stroke-linejoin="round"
           d="m 84.156055,292.1503 c 7.830127,0.20927 -7.423906,0.29959 71.334175,0.01 0.59811,-48.35871 6.23549,-78.57828 13.48633,-98.15625 8.09324,-21.85252 19.37938,-32.35551 22.20899,-36.05274 10.81234,-14.11964 22.55567,-54.71408 0.0605,-90.179686 l -0.008,-0.01172 -0.008,-0.01367 C 175.08419,42.159576 148.09567,27.169474 120.0957,27.511719 98.493727,27.775761 75.257452,37.159698 55.015625,59.464844 l -0.0078,0.0098 c -27.056314,30.148275 -18.384483,74.200311 -3.15039,98.390621 0.04421,0.0362 0.722275,0.60479 1.854135,1.89354 6.602985,7.45175 28.596049,39.15762 30.444498,132.39153 z"
           fill="url(#linearGradient2430)"
           fill-rule="evenodd"
           style="display:inline;fill:url(#radialGradient148);stroke:#fce94f;stroke-width:13.0413;stroke-linecap:round;stroke-linejoin:round;stroke-dasharray:none;stroke-opacity:1" />
      </g>
    </g>
    <path
       style="fill:none;fill-opacity:1;stroke:#fce94f;stroke-width:1;stroke-linecap:round;stroke-linejoin:round;stroke-dasharray:none;stroke-opacity:1;paint-order:normal"
       d="M 30.489608,43.739282 C 30.312501,28.603051 27.132074,28.28744 26.343803,23.232841 c -0.986215,-6.32386 1.513262,2.140923 2.574643,1.262536 1.06138,-0.878387 0.07659,-7.740349 1.27064,-4.080402 1.194053,3.659948 2.2014,3.367151 3.307006,0 1.105605,-3.367151 -0.558299,7.0868 0.734795,5.147297 1.293093,-1.939503 3.285368,-6.151896 2.835933,-3.262473 C 36.541025,25.680146 32,27.66027 33.496092,43.73001"
       id="path148" />
  </g>
</svg>
