<?xml version="1.0" encoding="utf-8"?>
<!-- Generator: Adobe Illustrator 26.4.1, SVG Export Plug-In . SVG Version: 6.00 Build 0)  -->
<svg version="1.1"
	 id="svg2869" xmlns:cc="http://creativecommons.org/ns#" xmlns:rdf="http://www.w3.org/1999/02/22-rdf-syntax-ns#" xmlns:svg="http://www.w3.org/2000/svg" xmlns:dc="http://purl.org/dc/elements/1.1/"
	 xmlns="http://www.w3.org/2000/svg" xmlns:xlink="http://www.w3.org/1999/xlink" x="0px" y="0px" viewBox="0 0 64 64"
	 style="enable-background:new 0 0 64 64;" xml:space="preserve">
<style type="text/css">
	.st0{fill:none;stroke:#231F0B;stroke-width:6;stroke-linecap:round;stroke-linejoin:round;}
	.st1{fill:none;stroke:#FCE94F;stroke-width:3;stroke-linecap:round;stroke-linejoin:round;}
	.st2{fill:none;stroke:#EDD400;stroke-width:1.5;stroke-linecap:round;stroke-linejoin:round;}
	.st3{fill:#FCE94F;stroke:#221E0C;stroke-width:2;stroke-linecap:round;stroke-linejoin:round;}
	.st4{fill:#EDD400;stroke:#FCE94F;stroke-width:2;stroke-linecap:round;stroke-linejoin:round;}
</style>
<g id="layer3">
	<g id="g84" transform="translate(5.5126565)">
		<path id="path69" class="st0" d="M53,32H4"/>
		<path id="path70_00000114070890994316477640000008550101487483641241_" class="st1" d="M4,32"/>
		<path id="path70_00000011716086117676225110000011094869744768378298_" class="st1" d="M53,32"/>
		<path id="path71_00000166672704698796442610000012844038626675084941_" class="st2" d="M4,32.7"/>
		<path id="path71_00000087409381128242508400000015620829704425492657_" class="st2" d="M53,32.7"/>
	</g>
	<circle id="path853" class="st3" cx="9.5" cy="32" r="6"/>
	<path id="circle84" class="st4" d="M9.5,28c2.2,0,4,1.8,4,4s-1.8,4-4,4s-4-1.8-4-4S7.3,28,9.5,28z"/>
	<g id="g86" transform="translate(5.5126565,-12)">
		<path id="path84" class="st0" d="M53,44L4,32"/>
		<path id="path85_00000137839617290362976130000018145005169178998158_" class="st1" d="M4,32"/>
		<path id="path85_00000143593118647023682570000016349127472308218277_" class="st1" d="M53,44"/>
		<path id="path86_00000114031286569240037120000007167034965246739095_" class="st2" d="M4,32.7"/>
		<path id="path86_00000026870439694860148430000017982570706392264594_" class="st2" d="M53,44.7"/>
	</g>
	<circle id="circle86" class="st3" cx="9.5" cy="20" r="6"/>
	<path id="path87" class="st4" d="M9.5,16c2.2,0,4,1.8,4,4s-1.8,4-4,4s-4-1.8-4-4S7.3,16,9.5,16z"/>
	<g id="g90" transform="translate(5.5126565,12)">
		<path id="path88" class="st0" d="M53,20L4,32"/>
		<path id="path89_00000029024276283340030690000010428525353491509900_" class="st1" d="M4,32"/>
		<path id="path89_00000129894714323457603210000015577738895210891961_" class="st1" d="M53,20"/>
		<path id="path90_00000131354914940596239690000013927717719647801752_" class="st2" d="M4,32.7"/>
		<path id="path90_00000134223359934335187050000011450656556716412816_" class="st2" d="M53,20.7"/>
	</g>
	<circle id="circle90" class="st3" cx="9.5" cy="44" r="6"/>
	<path id="path91" class="st4" d="M9.5,40c2.2,0,4,1.8,4,4s-1.8,4-4,4s-4-1.8-4-4S7.3,40,9.5,40z"/>
	<g id="g94" transform="translate(5.5126565,24)">
		<path id="path92" class="st0" d="M52.4,8.4L4,32"/>
		<path id="path93_00000081647334862893335140000012098341470494415243_" class="st1" d="M4,32"/>
		<path id="path93_00000170985971394227852570000006727392288801725577_" class="st1" d="M52.4,8.4"/>
		<path id="path94_00000089574565754027685010000007613416667779007109_" class="st2" d="M4,32.7"/>
		<path id="path94_00000146496387802534730660000014072196627197076398_" class="st2" d="M52.4,9.1"/>
	</g>
	<circle id="circle94" class="st3" cx="9.5" cy="56" r="6"/>
	<path id="path95" class="st4" d="M9.5,52c2.2,0,4,1.8,4,4s-1.8,4-4,4s-4-1.8-4-4S7.3,52,9.5,52z"/>
	<g id="g98" transform="translate(5.5126565,-24)">
		<path id="path96" class="st0" d="M53,56L4,32"/>
		<path id="path97" class="st1" d="M53,56L4,32"/>
		<path id="path98" class="st2" d="M53,56.7l-49-24"/>
	</g>
	<circle id="circle98" class="st3" cx="9.5" cy="8" r="6"/>
	<path id="path99" class="st4" d="M9.5,4c2.2,0,4,1.8,4,4s-1.8,4-4,4s-4-1.8-4-4S7.3,4,9.5,4z"/>
</g>
<path id="path70" class="st1" d="M58.5,32h-49"/>
<path id="path71" class="st2" d="M58.5,32.7h-49"/>
<path id="path85" class="st1" d="M58.5,32l-49-12"/>
<path id="path86" class="st2" d="M58.5,32.7l-49-12"/>
<path id="path89" class="st1" d="M58.5,32l-49,12"/>
<path id="path90" class="st2" d="M58.5,32.7l-49,12"/>
<path id="path93" class="st1" d="M57.9,32.4L9.5,56"/>
<path id="path94" class="st2" d="M57.9,33.1L9.5,56.7"/>
</svg>
